<?xml version="1.0" encoding="UTF-8"?>
<svg
          width="60"
          height="32"
          viewBox="0 0 30 16"
          shapeRendering="crispEdges"
          xmlns="http://www.w3.org/2000/svg"
        >
          <rect x="0" y="1" width="30" height="1" fill="#2a5a3a" />
          <rect x="0" y="14" width="30" height="1" fill="#2a5a3a" />
          <rect x="0" y="1" width="1" height="14" fill="#2a5a3a" />
          <rect x="29" y="1" width="1" height="14" fill="#2a5a3a" />
          <rect x="1" y="2" width="28" height="12" fill="#4a7c5a" />
          <rect x="2" y="3" width="3" height="1" fill="#2a5a3a" />
          <rect x="25" y="3" width="3" height="1" fill="#2a5a3a" />
          <rect x="2" y="12" width="3" height="1" fill="#2a5a3a" />
          <rect x="25" y="12" width="3" height="1" fill="#2a5a3a" />
          <rect x="3" y="4" width="1" height="8" fill="#2a5a3a" />
          <rect x="26" y="4" width="1" height="8" fill="#2a5a3a" />
          <rect x="12" y="5" width="6" height="1" fill="#6b9e7a" />
          <rect x="11" y="6" width="8" height="4" fill="#6b9e7a" />
          <rect x="12" y="10" width="6" height="1" fill="#6b9e7a" />
          <rect x="14" y="7" width="2" height="2" fill="#2a5a3a" />
          <rect x="13" y="7" width="1" height="1" fill="#2a5a3a" />
          <rect x="16" y="7" width="1" height="1" fill="#2a5a3a" />
          <rect x="14" y="6" width="2" height="1" fill="#2a5a3a" />
          <rect x="14" y="9" width="2" height="1" fill="#2a5a3a" />
          <rect x="5" y="6" width="1" height="4" fill="#e8dcc4" />
          <rect x="6" y="5" width="1" height="1" fill="#e8dcc4" />
          <rect x="6" y="10" width="1" height="1" fill="#e8dcc4" />
          <rect x="7" y="6" width="1" height="4" fill="#e8dcc4" />
          <rect x="8" y="5" width="1" height="1" fill="#e8dcc4" />
          <rect x="8" y="10" width="1" height="1" fill="#e8dcc4" />
          <rect x="9" y="6" width="1" height="4" fill="#e8dcc4" />
          <rect x="20" y="6" width="1" height="4" fill="#e8dcc4" />
          <rect x="21" y="5" width="1" height="1" fill="#e8dcc4" />
          <rect x="21" y="10" width="1" height="1" fill="#e8dcc4" />
          <rect x="22" y="6" width="1" height="4" fill="#e8dcc4" />
          <rect x="23" y="5" width="1" height="1" fill="#e8dcc4" />
          <rect x="23" y="10" width="1" height="1" fill="#e8dcc4" />
          <rect x="24" y="6" width="1" height="4" fill="#e8dcc4" />
          <rect x="1" y="2" width="28" height="1" fill="#6b9e7a" />
        </svg>
